<?xml version="1.0" encoding="UTF-8"?>
<svg width="200" height="200" viewBox="0 0 200 200" xmlns="http://www.w3.org/2000/svg">
  <rect width="200" height="200" rx="20" fill="#28a745"/>
  <path d="M60 70H140C145.523 70 150 74.477 150 80V120C150 125.523 145.523 130 140 130H60C54.477 130 50 125.523 50 120V80C50 74.477 54.477 70 60 70ZM60 80V120H140V80H60ZM100 100C100 94.477 104.477 90 110 90H120C125.523 90 130 94.477 130 100C130 105.523 125.523 110 120 110H110C104.477 110 100 105.523 100 100ZM70 100C70 94.477 74.477 90 80 90C85.523 90 90 94.477 90 100C90 105.523 85.523 110 80 110C74.477 110 70 105.523 70 100Z" fill="white"/>
</svg>
