<?xml version="1.0" encoding="UTF-8"?>
<svg width="200" height="200" viewBox="0 0 200 200" xmlns="http://www.w3.org/2000/svg">
  <rect width="200" height="200" rx="20" fill="#ae2070"/>
  <path d="M100 50C72.386 50 50 72.386 50 100C50 127.614 72.386 150 100 150C127.614 150 150 127.614 150 100C150 72.386 127.614 50 100 50ZM85 80C85 74.477 89.477 70 95 70C100.523 70 105 74.477 105 80C105 85.523 100.523 90 95 90C89.477 90 85 85.523 85 80ZM95 130C89.477 130 85 125.523 85 120C85 114.477 89.477 110 95 110C100.523 110 105 114.477 105 120C105 125.523 100.523 130 95 130ZM125 110C119.477 110 115 105.523 115 100C115 94.477 119.477 90 125 90C130.523 90 135 94.477 135 100C135 105.523 130.523 110 125 110Z" fill="white"/>
</svg>
